<svg viewBox="0 0 580 170" xmlns="http://www.w3.org/2000/svg">
  <defs>
    <filter id="bloom2" x="-60%" y="-60%" width="220%" height="220%"><feGaussianBlur stdDeviation="3.5"/></filter>
  </defs>

  <!-- INTERNET (globe) -->
  <g transform="translate(80 85)" fill="none" stroke="#141416" stroke-width="3" stroke-linecap="round">
    <circle cx="0" cy="0" r="36"/>
    <ellipse cx="0" cy="0" rx="15" ry="36"/>
    <line x1="-36" y1="0" x2="36" y2="0"/>
    <line x1="-31" y1="-18" x2="31" y2="-18"/>
    <line x1="-31" y1="18" x2="31" y2="18"/>
  </g>

  <!-- cable 1 -->
  <line x1="120" y1="85" x2="218" y2="85" stroke="#c0b7a8" stroke-width="3"/>
  <rect x="116" y="80" width="10" height="10" rx="2" fill="#9a9286"/>
  <rect x="214" y="80" width="10" height="10" rx="2" fill="#9a9286"/>

  <!-- braintech puck (top view, glowing) -->
  <g transform="translate(222 43)">
    <rect x="0" y="0" width="118" height="84" rx="16" fill="#141416"/>
    <g transform="translate(46 42) scale(0.42)" fill="none" stroke="#f4f5f0" stroke-width="14" stroke-linecap="round" stroke-linejoin="round" filter="url(#bloom2)">
      <path d="M0,-40 C9,-46 22,-43 25,-33 C36,-36 43,-25 35,-18 C44,-14 43,-2 35,0 C43,3 41,16 31,16 C35,25 28,33 20,29"/>
      <path d="M0,-40 C-9,-46 -22,-43 -25,-33 C-36,-36 -43,-25 -35,-18 C-44,-14 -43,-2 -35,0 C-43,3 -41,16 -31,16 C-35,25 -28,33 -20,29"/>
      <line x1="0" y1="-33" x2="0" y2="26"/>
    </g>
    <circle cx="86" cy="60" r="8" fill="#d15730"/>
  </g>

  <!-- cable 2 -->
  <line x1="340" y1="85" x2="438" y2="85" stroke="#c0b7a8" stroke-width="3"/>
  <rect x="336" y="80" width="10" height="10" rx="2" fill="#9a9286"/>
  <rect x="434" y="80" width="10" height="10" rx="2" fill="#9a9286"/>

  <!-- WIFI router -->
  <g transform="translate(442 43)">
    <line x1="38" y1="2" x2="32" y2="-20" stroke="#141416" stroke-width="3" stroke-linecap="round"/>
    <line x1="80" y1="2" x2="86" y2="-20" stroke="#141416" stroke-width="3" stroke-linecap="round"/>
    <rect x="0" y="0" width="118" height="84" rx="14" fill="#141416"/>
    <g fill="none" stroke="#d15730" stroke-width="3.4" stroke-linecap="round">
      <path d="M44,58 a16,16 0 0 1 30,0"/>
      <path d="M36,48 a28,28 0 0 1 46,0"/>
    </g>
    <circle cx="59" cy="64" r="4" fill="#d15730"/>
  </g>
</svg>
